<svg xmlns="http://www.w3.org/2000/svg" width="171" height="364" viewBox="0 0 171 364">
  <g id="Group_7" data-name="Group 7" transform="translate(-1149 -169)">
    <g id="Group_4" data-name="Group 4" transform="translate(1213 169)">
      <g id="Path_1" data-name="Path 1" fill="none">
        <path d="M23,0A23,23,0,1,1,0,23,23,23,0,0,1,23,0Z" stroke="none"/>
        <path d="M 23 1 C 20.02957916259766 1 17.14854049682617 1.581539154052734 14.43691062927246 2.728458404541016 C 11.81729125976563 3.836471557617188 9.464408874511719 5.422889709472656 7.443649291992188 7.443649291992188 C 5.422889709472656 9.464408874511719 3.836471557617188 11.81729125976563 2.728458404541016 14.43691062927246 C 1.581539154052734 17.14854049682617 1 20.02957916259766 1 23 C 1 25.97042083740234 1.581539154052734 28.85145950317383 2.728458404541016 31.56309127807617 C 3.836471557617188 34.18270874023438 5.422889709472656 36.53559112548828 7.443649291992188 38.55635070800781 C 9.464408874511719 40.57711029052734 11.81729125976563 42.16352844238281 14.43691062927246 43.27154159545898 C 17.14854049682617 44.41846084594727 20.02957916259766 45 23 45 C 25.97042083740234 45 28.85145950317383 44.41846084594727 31.56309127807617 43.27154159545898 C 34.18270874023438 42.16352844238281 36.53559112548828 40.57711029052734 38.55635070800781 38.55635070800781 C 40.57711029052734 36.53559112548828 42.16352844238281 34.18270874023438 43.27154159545898 31.56309127807617 C 44.41846084594727 28.85145950317383 45 25.97042083740234 45 23 C 45 20.02957916259766 44.41846084594727 17.14854049682617 43.27154159545898 14.43691062927246 C 42.16352844238281 11.81729125976563 40.57711029052734 9.464408874511719 38.55635070800781 7.443649291992188 C 36.53559112548828 5.422889709472656 34.18270874023438 3.836471557617188 31.56309127807617 2.728458404541016 C 28.85145950317383 1.581539154052734 25.97042083740234 1 23 1 M 23 0 C 35.70254898071289 0 46 10.29745101928711 46 23 C 46 35.70254898071289 35.70254898071289 46 23 46 C 10.29745101928711 46 0 35.70254898071289 0 23 C 0 10.29745101928711 10.29745101928711 0 23 0 Z" stroke="none" fill="#5cc3cb"/>
      </g>
      <path id="calendar-alt-regular" d="M4.637,9.024H3.384a.377.377,0,0,1-.376-.376V7.395a.377.377,0,0,1,.376-.376H4.637a.377.377,0,0,1,.376.376V8.648A.377.377,0,0,1,4.637,9.024Zm3.384-.376V7.395a.377.377,0,0,0-.376-.376H6.392a.377.377,0,0,0-.376.376V8.648a.377.377,0,0,0,.376.376H7.645A.377.377,0,0,0,8.021,8.648Zm3.008,0V7.395a.377.377,0,0,0-.376-.376H9.4a.377.377,0,0,0-.376.376V8.648a.377.377,0,0,0,.376.376h1.253A.377.377,0,0,0,11.029,8.648ZM8.021,11.656V10.4a.377.377,0,0,0-.376-.376H6.392a.377.377,0,0,0-.376.376v1.253a.377.377,0,0,0,.376.376H7.645A.377.377,0,0,0,8.021,11.656Zm-3.008,0V10.4a.377.377,0,0,0-.376-.376H3.384a.377.377,0,0,0-.376.376v1.253a.377.377,0,0,0,.376.376H4.637A.377.377,0,0,0,5.013,11.656Zm6.016,0V10.4a.377.377,0,0,0-.376-.376H9.4a.377.377,0,0,0-.376.376v1.253a.377.377,0,0,0,.376.376h1.253A.377.377,0,0,0,11.029,11.656Zm3.008-8.147V14.539a1.5,1.5,0,0,1-1.5,1.5H1.5a1.5,1.5,0,0,1-1.5-1.5V3.509a1.5,1.5,0,0,1,1.5-1.5h1.5V.376A.377.377,0,0,1,3.384,0H4.637a.377.377,0,0,1,.376.376V2.005H9.024V.376A.377.377,0,0,1,9.4,0h1.253a.377.377,0,0,1,.376.376V2.005h1.5A1.5,1.5,0,0,1,14.037,3.509Zm-1.5,10.841V5.013H1.5v9.337a.189.189,0,0,0,.188.188H12.345A.189.189,0,0,0,12.533,14.351Z" transform="translate(16.026 14.957)" fill="none" stroke="#5cc3cb" stroke-width="1"/>
    </g>
    <g id="Group_5" data-name="Group 5" transform="translate(1213 305)">
      <g id="Ellipse_5" data-name="Ellipse 5" fill="none" stroke="#5cc3cb" stroke-width="1">
        <circle cx="23" cy="23" r="23" stroke="none"/>
        <circle cx="23" cy="23" r="22.5" fill="none"/>
      </g>
      <path id="ticket-alt-solid" d="M4.492,67.369H15.723v6.739H4.492Zm14.039,3.369a1.685,1.685,0,0,0,1.685,1.685v3.369a1.685,1.685,0,0,1-1.685,1.685H1.685A1.685,1.685,0,0,1,0,75.792V72.423a1.685,1.685,0,1,0,0-3.369V65.685A1.685,1.685,0,0,1,1.685,64H18.531a1.685,1.685,0,0,1,1.685,1.685v3.369A1.685,1.685,0,0,0,18.531,70.739Zm-1.685-3.65A.842.842,0,0,0,16,66.246H4.212a.842.842,0,0,0-.842.842v7.3a.842.842,0,0,0,.842.842H16a.842.842,0,0,0,.842-.842Z" transform="translate(13 -48)" fill="#5cc3cb"/>
    </g>
    <g id="Group_6" data-name="Group 6" transform="translate(1213 453)">
      <g id="Ellipse_5-2" data-name="Ellipse 5" fill="none" stroke="#5cc3cb" stroke-width="1">
        <circle cx="23" cy="23" r="23" stroke="none"/>
        <circle cx="23" cy="23" r="22.5" fill="none"/>
      </g>
      <path id="credit-card-regular" d="M22.182,32H2.021A2.018,2.018,0,0,0,0,34.017V48.808a2.018,2.018,0,0,0,2.021,2.017H22.182A2.018,2.018,0,0,0,24.2,48.808V34.017A2.018,2.018,0,0,0,22.182,32ZM2.273,34.017H21.93a.253.253,0,0,1,.252.252v1.765H2.021V34.269A.253.253,0,0,1,2.273,34.017ZM21.93,48.808H2.273a.253.253,0,0,1-.252-.252V41.412H22.182v7.143A.253.253,0,0,1,21.93,48.808Zm-13.862-4.2v1.681a.506.506,0,0,1-.5.5H4.538a.506.506,0,0,1-.5-.5V44.606a.506.506,0,0,1,.5-.5H7.564A.506.506,0,0,1,8.068,44.606Zm8.068,0v1.681a.506.506,0,0,1-.5.5H9.917a.506.506,0,0,1-.5-.5V44.606a.506.506,0,0,1,.5-.5h5.715A.506.506,0,0,1,16.136,44.606Z" transform="translate(11 -18.83)" fill="#5cc3cb"/>
    </g>
    <text id="_1._Pick_Event" data-name="1. Pick Event" transform="translate(1191 239)" fill="#fffdef" font-size="15" font-family="Poppins-Medium, Poppins" font-weight="500"><tspan x="0" y="0">1. Pick Event</tspan></text>
    <text id="_2._Checkout_your_ticket" data-name="2. Checkout your ticket" transform="translate(1149 380)" fill="#fffdef" font-size="15" font-family="Poppins-Medium, Poppins" font-weight="500"><tspan x="0" y="0">2. Checkout your ticket</tspan></text>
    <text id="_3._Make_Payment" data-name="3. Make Payment" transform="translate(1171 528)" fill="#fffdef" font-size="15" font-family="Poppins-Medium, Poppins" font-weight="500"><tspan x="0" y="0">3. Make Payment</tspan></text>
    <line id="Line_4" data-name="Line 4" y2="40" transform="translate(1236.5 250.5)" fill="none" stroke="#004b51" stroke-linecap="round" stroke-width="2"/>
    <line id="Line_5" data-name="Line 5" y2="43" transform="translate(1236.5 398.5)" fill="none" stroke="#004b51" stroke-linecap="round" stroke-width="2"/>
  </g>
</svg>
